<svg xmlns="http://www.w3.org/2000/svg" version="1.1" xmlns:xlink="http://www.w3.org/1999/xlink" width="500" height="500"><svg id="SvgjsSvg1172" xmlns="http://www.w3.org/2000/svg" viewBox="0 0 500 500"><defs><style>.cls-1{fill:#1d1d1b;}.cls-1,.cls-2{stroke-width:0px;}.cls-2{fill:#f9b233;}</style></defs><g id="SvgjsG1171"><rect class="cls-2" x="0" y="0" width="500" height="500" rx="250" ry="250"></rect><path class="cls-1" d="M345.07,264.28c-16.08-17.78-40.7-32.83-75.26-45.99-21.67-8.25-35.82-14.79-45.88-21.2-4.99-3.42-9.13-6.66-12.63-9.9-8.72-8.72-12.78-18.85-12.78-31.89,0-25.04,19.2-50.31,62.1-50.31,11.35,0,21.77,1.29,31.13,3.3l.13.03h0l7.6-1.37c-2.16-.58-4.38-1.12-6.66-1.62-9.67-2.11-20.44-3.46-32.19-3.46-19.74,0-36.4,5.43-48.18,15.71-10.99,9.59-17.04,22.98-17.04,37.72,0,3.14.23,6.1.68,8.94-1.55-5.46-1.96-11.37-1.24-17.9,2.43-22.07,21.16-47.83,65.97-47.83,12.12,0,23.23,1.45,33.14,3.65,4.57,1.02,8.87,2.19,12.9,3.46l6.38-1.15c-5.49-1.95-11.58-3.77-18.22-5.26-10.2-2.29-21.68-3.81-34.2-3.81-19.8,0-36.82,5.15-49.24,14.9-11.45,9.01-18.55,21.79-20,36-.67,6.71-.26,12.79,1.25,18.38-3.42-8.7-3.91-17.4-1.65-27.29,5.01-21.93,25.99-45.36,69.84-45.36,12.93,0,24.73,1.58,35.17,3.94,8.95,2.02,16.9,4.62,23.67,7.31l5.67-1.02c-7.73-3.34-17.25-6.71-28.29-9.23-10.74-2.46-22.9-4.1-36.23-4.1-19.85,0-37.24,4.87-50.3,14.09-11.95,8.47-20.1,20.64-22.97,34.27-6.02,28.62,9.11,45.75,37.28,65.65,2.99,2.42,6.6,5.24,10.8,7.9,2.25,1.42,4.47,2.84,6.68,4.25h0c14.21,9.69,26.83,18.95,38.56,28.3,23.37,18.62,38.96,38.24,48.5,61.17-4.36-8.12-9.73-15.45-16.29-22.23-6.19-6.4-13.88-14.36-22.4-21.2-11.11-8.94-22.85-17.77-34.2-26.31-6.8-5.12-13.83-10.41-20.76-15.74-6.91-5.93-13.04-11.24-18.74-16.24-1.39-1.22-2.69-2.52-3.94-3.78-.91-.91-1.76-1.77-2.65-2.61-2.52-2.36-4.9-4.7-7.08-6.95-7.65-9.05-12.62-17.05-15.64-25.18-4.64-12.51-4.75-23.58-.37-35.88,9.57-26.86,37.13-42.89,73.73-42.89,13.69,0,26.2,1.75,37.18,4.29,13.61,3.15,24.85,7.53,33.03,11.35l5.21-.94c-8.44-4.23-21.2-9.62-37.18-13.36-11.27-2.64-24.14-4.46-38.24-4.46-19.91,0-37.67,4.59-51.35,13.29-12.61,8.04-21.57,19.3-25.93,32.55-7.45,22.67-2.13,39.98,18.98,61.76,1,1.18,1.92,2.24,2.82,3.25.5.56,1,1.12,1.51,1.7,3.47,3.92,7.05,7.98,11.73,11.77,4.91,3.97,10.29,8.21,16.45,12.95,8.08,6.93,16.34,13.93,24.54,20.81,16.95,14.21,30.46,28.25,41.18,42.82-1.34-1.22-2.72-2.42-4.11-3.58-1.78-1.48-3.56-2.98-5.34-4.48-6.05-5.09-12.3-10.36-18.88-15.17-18.93-13.85-37.31-27.53-54.07-42.55-6.6-6.69-12.94-13.6-18.84-20.55-1.19-1.4-2.25-2.88-3.28-4.32-.68-.95-1.39-1.94-2.11-2.87-2.51-3.23-4.79-6.39-6.78-9.39-4.85-8.76-7.75-16.69-9.13-24.96-2.16-12.99-.51-24.42,5.19-35.95,12.51-25.31,41.53-40.41,77.61-40.41,14.53,0,27.72,1.87,39.21,4.57,19.27,4.52,33.72,11.35,41.51,15.62l4.77-.86h-.01c-13.14-7.81-28.78-13.86-45.22-17.7-13.21-3.08-26.92-4.75-40.26-4.75-20.26,0-37.89,4.2-52.41,12.48-13.1,7.51-23.08,18.16-28.88,30.82-9.69,21.15-7.61,39.56,6.96,61.54,1.17,2.1,2.46,4.27,3.84,6.46l.85,1.35c2.95,4.68,6.01,9.52,10.35,14.02,4.96,5.14,10.23,10.2,16.1,15.47,6.52,6.61,13.47,13.17,20.65,19.5,15.9,14.02,28.42,26.06,39.16,37.64-3.24-2.23-6.45-4.5-9.58-6.71-4.46-3.16-9.08-6.42-13.69-9.5-24.85-16.59-43.03-31.53-57.22-46.99-5.52-6.77-10.53-13.81-14.9-20.93-1-1.64-1.86-3.36-2.68-5.03-.48-.98-.98-1.98-1.5-2.95-1.38-2.59-2.67-5.18-3.81-7.71-3.68-10.01-5.41-19.46-5.29-28.88.18-13.29,3.7-25.07,10.76-36.01,15.55-24.11,45.25-37.93,81.5-37.93,13.71,0,27.77,1.7,41.24,4.85,13.53,3.16,26.46,7.79,37.85,13.63l-4.95-5.85c-9.87-4.47-20.66-8.09-31.85-10.73-13.82-3.26-28.24-5.02-42.3-5.02-20.32,0-38.31,3.93-53.47,11.68-13.6,6.99-24.61,17.05-31.83,29.1-12.63,21.07-13.37,41.26-2.39,65.48.7,1.91,1.42,3.71,2.19,5.51,2.47,5.77,5.03,11.73,9.15,17.28,3.43,4.62,7.36,9.34,11.66,14.03,6.26,7.67,13.27,15.13,20.84,22.16,9.02,8.38,18.3,16.7,27.27,24.75,4.04,3.63,8.09,7.26,12.13,10.9-5.68-3.31-11.24-6.71-16.65-10.03l-3.84-2.35c-29.88-18.26-50.87-37.32-64.19-58.28-2.72-4.73-5.13-9.58-7.15-14.44-.85-2.03-1.51-4.16-2.16-6.21l-.2-.65h0c-.32-1.13-.63-2.26-.92-3.39-3.42-13.15-4.07-25.38-1.99-37.38,2.37-13.62,7.71-25.42,16.34-36.08,18.49-22.86,48.82-35.45,85.39-35.45,14.43,0,29.2,1.8,43.28,5.12,8.92,2.1,17.56,4.82,25.67,8.08l-1.95-2.3-2.22-2.63c-6.56-2.39-13.41-4.43-20.43-6.1-14.42-3.43-29.56-5.29-44.34-5.29-20.39,0-38.74,3.66-54.53,10.87-14.33,6.57-26.03,15.78-34.78,27.37-16.76,22.2-20.31,46.9-10.87,75.49.21.63.41,1.27.61,1.91h0c1.24,4.42,3.07,10.21,6.18,15.77,1.02,1.83,2.17,3.75,3.41,5.7h0c6.47,11.25,14.83,21.92,24.84,31.72,11.84,11.6,25.37,23.03,42.34,35.79-6.73-3.27-13.43-6.77-20.39-10.67-33.69-18.87-56-41.39-66.32-66.95-2.43-6.01-4.01-12.64-5-20.88-1.69-14.16-.51-27.75,3.5-40.38,4.35-13.67,11.72-25.83,21.92-36.14,21.02-21.26,52.73-32.96,89.29-32.96,15.16,0,30.64,1.89,45.32,5.38,5.06,1.2,10.03,2.6,14.86,4.17l-3.74-4.42c-3.3-.98-6.66-1.88-10.06-2.7-15.02-3.6-30.86-5.55-46.38-5.55-20.47,0-39.17,3.39-55.59,10.07-14.85,6.06-27.54,14.69-37.72,25.65-19.99,21.63-27.79,47.78-23.19,77.72l.06.39c.47,3.05.96,6.21,1.73,9.26,4.55,18.03,14.07,34.63,28.27,49.32,12.97,13.41,29.21,25.83,49.54,37.88-60.6-23.3-92.59-59.07-92.59-103.62,0-64.79,53.33-110.04,129.69-110.04,15.9,0,32.09,1.99,47.36,5.64,1.63.39,3.26.8,4.87,1.23l-3.46-4.09h0l-.35-.08c-15.61-3.77-32.16-5.81-48.41-5.81-39.41,0-73.06,11.48-97.31,33.21-22.89,20.5-35.49,48.89-35.49,79.95,0,23.49,8.43,44.64,25.07,62.84,17.09,18.7,42.84,34.28,76.55,46.29,5.03,1.86,9.78,3.72,14.09,5.53l.9.47c.68.35,1.36.7,2.04,1.05.95.48,1.88.99,2.79,1.49.64.35,1.29.7,1.93,1.04,19.82,10.43,32.72,19.99,40.56,30.06,4.98,8.08,7.4,17.51,7.4,28.85,0,33.94-27.71,55.03-72.32,55.03-15.2,0-30.89-2.81-45.44-7.14l-.18-.05h0l-6.42,1.24c1.84.61,3.7,1.19,5.58,1.76,14.87,4.43,30.91,7.32,46.46,7.32,24,0,43.64-5.83,56.8-16.87,10.46-8.77,16.69-20.53,18.25-34.3-.08,1.07-.18,2.16-.31,3.27-3.37,29.42-28.27,48.43-66.59,50.87-3.12.2-6.35.29-9.6.27-15.52-.08-31.44-2.92-46.15-7.24-3.9-1.15-7.71-2.39-11.41-3.73l-5.82,1.12c5.17,2,10.61,3.86,16.22,5.51,15.39,4.52,32.11,7.48,48.41,7.48,26.49,0,48.26-6.5,62.95-18.8.95-.79,1.87-1.62,2.76-2.46-12.41,14.32-32.92,22.86-58.75,24.27-3.15.17-6.4.23-9.66.2-16.38-.17-32.43-3.05-46.9-7.25-7.75-2.25-15.04-4.88-21.68-7.68l-1.8.35-3.57.69c7.79,3.48,16.58,6.78,26.05,9.53,15.47,4.49,32.74,7.53,50.41,7.53,24.68,0,45.77-5.23,61.5-15.2-13.65,10.92-32.76,17.2-55.73,18.25-3.18.14-6.45.18-9.72.14-15.28-.24-31.79-2.88-47.62-7.35-10.91-3.09-21.49-7.05-31.1-11.7l-5.02.97c10.67,5.48,22.67,10.1,35.13,13.62,17.32,4.89,35.54,7.66,52.38,7.66,23.94,0,45.03-4.63,61.5-13.44-14.69,10.01-34.21,15.7-56.93,16.54-3.21.11-6.5.13-9.79.07-15.83-.33-32.5-2.94-48.36-7.36-14.27-3.98-27.88-9.42-39.64-15.98l-4.68.9c12.63,7.47,27.55,13.59,43.31,17.97,17.73,4.94,36.54,7.69,54.38,7.69,25.33,0,47.78-4.83,65.47-14.04-16.28,10.59-37.56,16.5-62.09,17.18-3.25.08-6.56.08-9.85,0-16.39-.42-33.21-3-49.11-7.37-14.87-4.08-28.92-9.72-41.06-16.61l5.64,6.51c10.48,5.2,22.18,9.56,34.45,12.92,18.25,5.01,37.76,7.8,56.36,7.8,30.06,0,56.09-6.29,75.96-18.28-18.83,13.52-44.11,20.91-73.77,21.46-3.27.06-6.6.03-9.91-.07-16.73-.51-33.8-3.12-49.83-7.46-9.57-2.59-18.77-5.79-27.31-9.53l3.28,3.79,1.28,1.48c6.93,2.75,14.22,5.16,21.74,7.19,18.64,5.04,38.71,7.8,58.37,7.8,38.93,0,71.33-9.83,93.71-28.43,11.37-9.46,19.54-21.12,24.29-34.64,5.6-16.04,6.3-32.54,2.14-50.46-3.47-14.94-9.3-27.63-17.85-38.77-7.45-9.72-13.79-16.74-20.57-22.75-19.69-17.48-43.37-33.28-66.02-47.75h0c-3.22-2.2-5.92-4.01-8.48-5.72-1.64-1.09-3.2-2.24-4.71-3.35-1.04-.77-2.06-1.52-3.09-2.24l-1.14-.81c-.93-.75-1.84-1.5-2.73-2.23l-.63-.51c5.08,3.25,11.05,6.49,18.04,9.77l.38.2c.59.32,1.18.63,1.78.95,1.01.54,2.04,1.09,3.07,1.65,1.92,1.04,3.9,2.11,5.95,3.15,19.95,10.07,36.57,20.2,50.8,30.99,27.56,20.88,42.86,44.78,48.15,75.19.21,1.22.38,2.48.54,3.69.08.61.16,1.21.25,1.82,4.91,34.66-6.3,63.43-33.3,85.53-21.92,17.94-52.9,27.6-89.58,27.95-3.3.03-6.66-.02-9.97-.13-17.32-.61-34.53-3.2-50.58-7.46-5.3-1.41-10.48-3-15.49-4.77l3.93,4.53c3.46,1.11,6.98,2.15,10.57,3.11,19.13,5.1,39.89,7.89,60.35,7.89,41.42,0,75.95-10.5,99.86-30.36,11.21-9.32,19.7-20.6,25.23-33.54,6.66-15.64,8.92-32.2,6.89-50.63-1.75-15.87-6.08-29.47-13.25-41.56-5.59-9.43-11.72-17.39-18.74-24.31-15.86-15.65-37.05-30.09-66.26-45.11,2.51.99,5.15,2.02,7.96,3.09,69.26,26.38,98.81,60.26,98.81,113.29,0,68.28-55.22,112.4-140.69,112.4-21.24,0-42.19-2.69-61.35-7.71-1.63-.43-3.24-.87-4.85-1.33l3.68,4.24h0l.15.04c19.48,5.12,40.79,7.87,62.37,7.87,43.9,0,80.56-11.16,106.01-32.29,24.73-20.52,37.8-49.3,37.8-83.23,0-28.23-8.36-51.19-25.55-70.21Z"></path></g></svg><style>@media (prefers-color-scheme: light) { :root { filter: none; } }
@media (prefers-color-scheme: dark) { :root { filter: none; } }
</style></svg>